<svg width="64" height="72" viewBox="0 0 64 72" fill="none" xmlns="http://www.w3.org/2000/svg">
<g filter="url(#filter0_d_16996_4262)">
<rect x="16" y="16" width="24" height="24" rx="8" fill="url(#paint0_linear_16996_4262)" shape-rendering="crispEdges"/>
<rect x="16.5" y="16.5" width="23" height="23" rx="7.5" stroke="url(#paint1_linear_16996_4262)" shape-rendering="crispEdges"/>
</g>
<path d="M29.25 30.75L23.5 25V23.5H25L30.75 29.25" stroke="#3C1661" stroke-linecap="round" stroke-linejoin="round"/>
<path d="M28.5 31.5L31.5 28.5" stroke="#3C1661" stroke-linecap="round" stroke-linejoin="round"/>
<path d="M30 30L32 32" stroke="#3C1661" stroke-linecap="round" stroke-linejoin="round"/>
<path d="M31.5 32.5L32.5 31.5" stroke="#3C1661" stroke-linecap="round" stroke-linejoin="round"/>
<path d="M29.25 25.25L31 23.5H32.5V25L30.75 26.75" stroke="#3C1661" stroke-linecap="round" stroke-linejoin="round"/>
<path d="M24.5 29L26.5 31" stroke="#3C1661" stroke-linecap="round" stroke-linejoin="round"/>
<path d="M25.5 30.5L24 32" stroke="#3C1661" stroke-linecap="round" stroke-linejoin="round"/>
<path d="M23.5 31.5L24.5 32.5" stroke="#3C1661" stroke-linecap="round" stroke-linejoin="round"/>
<defs>
<filter id="filter0_d_16996_4262" x="-8" y="0" width="72" height="72" filterUnits="userSpaceOnUse" color-interpolation-filters="sRGB">
<feFlood flood-opacity="0" result="BackgroundImageFix"/>
<feColorMatrix in="SourceAlpha" type="matrix" values="0 0 0 0 0 0 0 0 0 0 0 0 0 0 0 0 0 0 127 0" result="hardAlpha"/>
<feOffset dy="8"/>
<feGaussianBlur stdDeviation="12"/>
<feComposite in2="hardAlpha" operator="out"/>
<feColorMatrix type="matrix" values="0 0 0 0 1 0 0 0 0 0 0 0 0 0 0.683333 0 0 0 0.16 0"/>
<feBlend mode="normal" in2="BackgroundImageFix" result="effect1_dropShadow_16996_4262"/>
<feBlend mode="normal" in="SourceGraphic" in2="effect1_dropShadow_16996_4262" result="shape"/>
</filter>
<linearGradient id="paint0_linear_16996_4262" x1="30.7" y1="21.1" x2="30.7" y2="59.5" gradientUnits="userSpaceOnUse">
<stop stop-color="white"/>
<stop offset="1" stop-color="#FFB4F0" stop-opacity="0.1"/>
</linearGradient>
<linearGradient id="paint1_linear_16996_4262" x1="16.6" y1="39.1" x2="38.8" y2="16.9" gradientUnits="userSpaceOnUse">
<stop stop-color="#FF00AE"/>
<stop offset="1" stop-color="#FF97DE"/>
</linearGradient>
</defs>
</svg>
